<mxfile host="app.diagrams.net" agent="Mozilla/5.0 (Windows NT 10.0; Win64; x64) AppleWebKit/537.36 (KHTML, like Gecko) Chrome/129.0.0.0 Safari/537.36" version="24.8.0">
  <diagram name="Страница — 1" id="D1h2QyJi1FoEnIbRy-Jx">
    <mxGraphModel dx="955" dy="482" grid="1" gridSize="10" guides="1" tooltips="1" connect="1" arrows="1" fold="1" page="1" pageScale="1" pageWidth="850" pageHeight="1100" math="0" shadow="0">
      <root>
        <mxCell id="0" />
        <mxCell id="1" parent="0" />
        <mxCell id="tb0hx9i6U6rIdRVoxGEn-1" value="&lt;div style=&quot;box-sizing:border-box;width:100%;background:#e4e4e4;padding:2px;&quot;&gt;Library&lt;/div&gt;&lt;table style=&quot;width:100%;font-size:1em;&quot; cellpadding=&quot;2&quot; cellspacing=&quot;0&quot;&gt;&lt;tbody&gt;&lt;tr&gt;&lt;td&gt;PK&lt;/td&gt;&lt;td&gt;&lt;strong&gt;LibraryID&lt;/strong&gt;: int&lt;br&gt;&lt;/td&gt;&lt;/tr&gt;&lt;tr&gt;&lt;td&gt;&lt;br&gt;&lt;/td&gt;&lt;td&gt;&lt;strong&gt;Name&lt;/strong&gt;: string&lt;br&gt;&lt;strong&gt;Location&lt;/strong&gt;: string&lt;br&gt;&lt;strong&gt;PhoneNumber&lt;/strong&gt;: string&lt;br&gt;&lt;/td&gt;&lt;/tr&gt;&lt;tr&gt;&lt;td&gt;&lt;/td&gt;&lt;td&gt;&lt;br&gt;&lt;/td&gt;&lt;/tr&gt;&lt;/tbody&gt;&lt;/table&gt;" style="verticalAlign=top;align=left;overflow=fill;html=1;whiteSpace=wrap;movable=1;resizable=1;rotatable=1;deletable=1;editable=1;locked=0;connectable=1;" parent="1" vertex="1">
          <mxGeometry x="80" y="190" width="155" height="90" as="geometry" />
        </mxCell>
        <mxCell id="tb0hx9i6U6rIdRVoxGEn-2" value="name" style="endArrow=block;endFill=1;html=1;edgeStyle=orthogonalEdgeStyle;align=left;verticalAlign=top;rounded=0;entryX=0.999;entryY=0.295;entryDx=0;entryDy=0;entryPerimeter=0;exitX=-0.002;exitY=0.353;exitDx=0;exitDy=0;exitPerimeter=0;" parent="1" source="tb0hx9i6U6rIdRVoxGEn-7" target="tb0hx9i6U6rIdRVoxGEn-1" edge="1">
          <mxGeometry x="-1" relative="1" as="geometry">
            <mxPoint x="280" y="240" as="sourcePoint" />
            <mxPoint x="290" y="290" as="targetPoint" />
            <mxPoint as="offset" />
          </mxGeometry>
        </mxCell>
        <mxCell id="tb0hx9i6U6rIdRVoxGEn-3" value="1" style="edgeLabel;resizable=0;html=1;align=left;verticalAlign=bottom;" parent="tb0hx9i6U6rIdRVoxGEn-2" connectable="0" vertex="1">
          <mxGeometry x="-1" relative="1" as="geometry" />
        </mxCell>
        <mxCell id="tb0hx9i6U6rIdRVoxGEn-4" value="Relation" style="endArrow=open;html=1;endSize=12;startArrow=diamondThin;startSize=14;startFill=0;edgeStyle=orthogonalEdgeStyle;rounded=0;entryX=0;entryY=0.25;entryDx=0;entryDy=0;exitX=1.002;exitY=0.428;exitDx=0;exitDy=0;exitPerimeter=0;" parent="1" source="tb0hx9i6U6rIdRVoxGEn-9" target="tb0hx9i6U6rIdRVoxGEn-8" edge="1">
          <mxGeometry relative="1" as="geometry">
            <mxPoint x="530" y="450" as="sourcePoint" />
            <mxPoint x="430" y="560" as="targetPoint" />
            <Array as="points">
              <mxPoint x="610" y="450" />
              <mxPoint x="610" y="360" />
              <mxPoint x="510" y="360" />
              <mxPoint x="510" y="218" />
            </Array>
          </mxGeometry>
        </mxCell>
        <mxCell id="tb0hx9i6U6rIdRVoxGEn-5" value="0..n" style="edgeLabel;resizable=0;html=1;align=left;verticalAlign=top;" parent="tb0hx9i6U6rIdRVoxGEn-4" connectable="0" vertex="1">
          <mxGeometry x="-1" relative="1" as="geometry" />
        </mxCell>
        <mxCell id="tb0hx9i6U6rIdRVoxGEn-6" value="1" style="edgeLabel;resizable=0;html=1;align=right;verticalAlign=top;" parent="tb0hx9i6U6rIdRVoxGEn-4" connectable="0" vertex="1">
          <mxGeometry x="1" relative="1" as="geometry" />
        </mxCell>
        <mxCell id="tb0hx9i6U6rIdRVoxGEn-7" value="&lt;div style=&quot;box-sizing:border-box;width:100%;background:#e4e4e4;padding:2px;&quot;&gt;Book&lt;/div&gt;&lt;table style=&quot;width:100%;font-size:1em;&quot; cellpadding=&quot;2&quot; cellspacing=&quot;0&quot;&gt;&lt;tbody&gt;&lt;tr&gt;&lt;td&gt;PK&lt;/td&gt;&lt;td&gt;&lt;strong&gt;BookID&lt;/strong&gt;: int&amp;nbsp;&lt;/td&gt;&lt;/tr&gt;&lt;tr&gt;&lt;td&gt;FK1&lt;br&gt;&lt;/td&gt;&lt;td&gt;&lt;strong&gt;LibraryID&lt;/strong&gt;: int&lt;br&gt;&lt;/td&gt;&lt;/tr&gt;&lt;tr&gt;&lt;td&gt;&lt;/td&gt;&lt;td&gt;&lt;strong&gt;Title&lt;/strong&gt;: string&lt;br&gt;&lt;strong&gt;ISBN&lt;/strong&gt;: string&lt;br&gt;&lt;strong&gt;PublishedYear&lt;/strong&gt;: int&lt;br&gt;&lt;strong&gt;CopiesAvailable&lt;/strong&gt;: int&lt;br&gt;&lt;/td&gt;&lt;/tr&gt;&lt;/tbody&gt;&lt;/table&gt;" style="verticalAlign=top;align=left;overflow=fill;html=1;whiteSpace=wrap;" parent="1" vertex="1">
          <mxGeometry x="293.24" y="190" width="156.76" height="130" as="geometry" />
        </mxCell>
        <mxCell id="tb0hx9i6U6rIdRVoxGEn-8" value="&lt;div style=&quot;box-sizing:border-box;width:100%;background:#e4e4e4;padding:2px;&quot;&gt;Reader&lt;/div&gt;&lt;table style=&quot;width:100%;font-size:1em;&quot; cellpadding=&quot;2&quot; cellspacing=&quot;0&quot;&gt;&lt;tbody&gt;&lt;tr&gt;&lt;td&gt;PK&lt;/td&gt;&lt;td&gt;&lt;strong&gt;ReaderID&lt;/strong&gt;: int&lt;br&gt;&lt;/td&gt;&lt;/tr&gt;&lt;tr&gt;&lt;td&gt;&lt;br&gt;&lt;/td&gt;&lt;td&gt;&lt;strong&gt;FullName&lt;/strong&gt;: string&lt;br&gt;&lt;strong&gt;Email&lt;/strong&gt;: string&lt;br&gt;&lt;strong&gt;PhoneNumber&lt;/strong&gt;: string&lt;br&gt;&lt;strong&gt;Address&lt;/strong&gt;: string&lt;br&gt;&lt;/td&gt;&lt;/tr&gt;&lt;tr&gt;&lt;td&gt;&lt;/td&gt;&lt;td&gt;&lt;br&gt;&lt;/td&gt;&lt;/tr&gt;&lt;/tbody&gt;&lt;/table&gt;" style="verticalAlign=top;align=left;overflow=fill;html=1;whiteSpace=wrap;" parent="1" vertex="1">
          <mxGeometry x="530" y="190" width="180" height="110" as="geometry" />
        </mxCell>
        <mxCell id="tb0hx9i6U6rIdRVoxGEn-9" value="&lt;div style=&quot;box-sizing:border-box;width:100%;background:#e4e4e4;padding:2px;&quot;&gt;Transaction&lt;/div&gt;&lt;table style=&quot;width:100%;font-size:1em;&quot; cellpadding=&quot;2&quot; cellspacing=&quot;0&quot;&gt;&lt;tbody&gt;&lt;tr&gt;&lt;td&gt;PK&lt;/td&gt;&lt;td&gt;&lt;strong&gt;TransactionID&lt;/strong&gt;: int&lt;/td&gt;&lt;/tr&gt;&lt;tr&gt;&lt;td&gt;FK2&lt;br&gt;FK3&lt;br&gt;FK4&lt;/td&gt;&lt;td&gt;&lt;strong&gt;LibraryID&lt;/strong&gt;: int&lt;br&gt;&lt;strong&gt;ReaderID&lt;/strong&gt;: int&lt;br&gt;&lt;strong&gt;BookID&lt;/strong&gt;: int&lt;br&gt;&lt;/td&gt;&lt;/tr&gt;&lt;tr&gt;&lt;td&gt;&lt;/td&gt;&lt;td&gt;&lt;strong&gt;NumberOfCopies&lt;/strong&gt;: int&lt;strong&gt;&lt;br&gt;CheckoutDate&lt;/strong&gt;: DateTime&lt;br&gt;&lt;strong&gt;ReturnDate&lt;/strong&gt;: DateTime (nullable)&lt;br&gt;&lt;/td&gt;&lt;/tr&gt;&lt;/tbody&gt;&lt;/table&gt;" style="verticalAlign=top;align=left;overflow=fill;html=1;whiteSpace=wrap;" parent="1" vertex="1">
          <mxGeometry x="296.48" y="390" width="216.76" height="140" as="geometry" />
        </mxCell>
        <mxCell id="tb0hx9i6U6rIdRVoxGEn-10" value="Relation" style="endArrow=open;html=1;endSize=12;startArrow=diamondThin;startSize=14;startFill=0;edgeStyle=orthogonalEdgeStyle;rounded=0;entryX=-0.001;entryY=0.2;entryDx=0;entryDy=0;entryPerimeter=0;exitX=-0.001;exitY=0.538;exitDx=0;exitDy=0;exitPerimeter=0;" parent="1" source="tb0hx9i6U6rIdRVoxGEn-9" target="tb0hx9i6U6rIdRVoxGEn-7" edge="1">
          <mxGeometry relative="1" as="geometry">
            <mxPoint x="260" y="462" as="sourcePoint" />
            <mxPoint x="240" y="310" as="targetPoint" />
            <Array as="points">
              <mxPoint x="260" y="465" />
              <mxPoint x="40" y="465" />
              <mxPoint x="40" y="180" />
              <mxPoint x="270" y="180" />
              <mxPoint x="270" y="218" />
            </Array>
          </mxGeometry>
        </mxCell>
        <mxCell id="tb0hx9i6U6rIdRVoxGEn-11" value="0..n" style="edgeLabel;resizable=0;html=1;align=left;verticalAlign=top;" parent="tb0hx9i6U6rIdRVoxGEn-10" connectable="0" vertex="1">
          <mxGeometry x="-1" relative="1" as="geometry">
            <mxPoint x="-25" as="offset" />
          </mxGeometry>
        </mxCell>
        <mxCell id="tb0hx9i6U6rIdRVoxGEn-12" value="1" style="edgeLabel;resizable=0;html=1;align=right;verticalAlign=top;" parent="tb0hx9i6U6rIdRVoxGEn-10" connectable="0" vertex="1">
          <mxGeometry x="1" relative="1" as="geometry">
            <mxPoint x="-3" y="-28" as="offset" />
          </mxGeometry>
        </mxCell>
        <mxCell id="tb0hx9i6U6rIdRVoxGEn-13" value="Relation" style="endArrow=open;html=1;endSize=12;startArrow=diamondThin;startSize=14;startFill=0;edgeStyle=orthogonalEdgeStyle;rounded=0;entryX=-0.024;entryY=0.311;entryDx=0;entryDy=0;entryPerimeter=0;exitX=-0.004;exitY=0.334;exitDx=0;exitDy=0;exitPerimeter=0;" parent="1" source="tb0hx9i6U6rIdRVoxGEn-9" target="tb0hx9i6U6rIdRVoxGEn-1" edge="1">
          <mxGeometry relative="1" as="geometry">
            <mxPoint x="270" y="437" as="sourcePoint" />
            <mxPoint x="60" y="290" as="targetPoint" />
            <Array as="points">
              <mxPoint x="50" y="437" />
              <mxPoint x="50" y="218" />
            </Array>
          </mxGeometry>
        </mxCell>
        <mxCell id="tb0hx9i6U6rIdRVoxGEn-14" value="0..n" style="edgeLabel;resizable=0;html=1;align=left;verticalAlign=top;" parent="tb0hx9i6U6rIdRVoxGEn-13" connectable="0" vertex="1">
          <mxGeometry x="-1" relative="1" as="geometry">
            <mxPoint x="-26" as="offset" />
          </mxGeometry>
        </mxCell>
        <mxCell id="tb0hx9i6U6rIdRVoxGEn-15" value="1" style="edgeLabel;resizable=0;html=1;align=right;verticalAlign=top;" parent="tb0hx9i6U6rIdRVoxGEn-13" connectable="0" vertex="1">
          <mxGeometry x="1" relative="1" as="geometry" />
        </mxCell>
        <mxCell id="NJ20DHf1GFnbEiUFYUzi-1" value="&lt;div style=&quot;box-sizing:border-box;width:100%;background:#e4e4e4;padding:2px;&quot;&gt;Author&lt;/div&gt;&lt;table style=&quot;width:100%;font-size:1em;&quot; cellpadding=&quot;2&quot; cellspacing=&quot;0&quot;&gt;&lt;tbody&gt;&lt;tr&gt;&lt;td&gt;PK&lt;/td&gt;&lt;td&gt;&lt;strong&gt;AuthorID&lt;/strong&gt;: int&lt;br&gt;&lt;/td&gt;&lt;/tr&gt;&lt;tr&gt;&lt;td&gt;&lt;br&gt;&lt;/td&gt;&lt;td&gt;&lt;strong&gt;FullName&lt;/strong&gt;: string&lt;br&gt;&lt;/td&gt;&lt;/tr&gt;&lt;tr&gt;&lt;td&gt;&lt;/td&gt;&lt;td&gt;&lt;br&gt;&lt;/td&gt;&lt;/tr&gt;&lt;/tbody&gt;&lt;/table&gt;" style="verticalAlign=top;align=left;overflow=fill;html=1;whiteSpace=wrap;" vertex="1" parent="1">
          <mxGeometry x="530" y="50" width="140" height="70" as="geometry" />
        </mxCell>
        <mxCell id="NJ20DHf1GFnbEiUFYUzi-2" value="&lt;div style=&quot;box-sizing:border-box;width:100%;background:#e4e4e4;padding:2px;&quot;&gt;BookAuthor&lt;/div&gt;&lt;table style=&quot;width:100%;font-size:1em;&quot; cellpadding=&quot;2&quot; cellspacing=&quot;0&quot;&gt;&lt;tbody&gt;&lt;tr&gt;&lt;td&gt;PK, FK5&lt;br&gt;PK, FK6&lt;/td&gt;&lt;td&gt;&lt;strong&gt;AuthorID&lt;/strong&gt;: int&lt;br&gt;&lt;strong&gt;BookID&lt;/strong&gt;: int&lt;br&gt;&lt;/td&gt;&lt;/tr&gt;&lt;tr&gt;&lt;td&gt;&lt;br&gt;&lt;/td&gt;&lt;td&gt;&lt;br&gt;&lt;/td&gt;&lt;/tr&gt;&lt;tr&gt;&lt;td&gt;&lt;/td&gt;&lt;td&gt;&lt;br&gt;&lt;/td&gt;&lt;/tr&gt;&lt;/tbody&gt;&lt;/table&gt;" style="verticalAlign=top;align=left;overflow=fill;html=1;whiteSpace=wrap;" vertex="1" parent="1">
          <mxGeometry x="311.24" y="50" width="144" height="60" as="geometry" />
        </mxCell>
        <mxCell id="NJ20DHf1GFnbEiUFYUzi-3" value="Relation" style="endArrow=open;html=1;endSize=12;startArrow=diamondThin;startSize=14;startFill=0;edgeStyle=orthogonalEdgeStyle;rounded=0;exitX=0.001;exitY=0.729;exitDx=0;exitDy=0;exitPerimeter=0;" edge="1" parent="1" source="NJ20DHf1GFnbEiUFYUzi-2">
          <mxGeometry relative="1" as="geometry">
            <mxPoint x="270" y="70" as="sourcePoint" />
            <mxPoint x="340" y="190" as="targetPoint" />
            <Array as="points">
              <mxPoint x="270" y="94" />
              <mxPoint x="270" y="150" />
              <mxPoint x="340" y="150" />
              <mxPoint x="340" y="190" />
            </Array>
          </mxGeometry>
        </mxCell>
        <mxCell id="NJ20DHf1GFnbEiUFYUzi-4" value="0..n" style="edgeLabel;resizable=0;html=1;align=left;verticalAlign=top;" connectable="0" vertex="1" parent="NJ20DHf1GFnbEiUFYUzi-3">
          <mxGeometry x="-1" relative="1" as="geometry">
            <mxPoint x="-23" as="offset" />
          </mxGeometry>
        </mxCell>
        <mxCell id="NJ20DHf1GFnbEiUFYUzi-5" value="1" style="edgeLabel;resizable=0;html=1;align=right;verticalAlign=top;" connectable="0" vertex="1" parent="NJ20DHf1GFnbEiUFYUzi-3">
          <mxGeometry x="1" relative="1" as="geometry">
            <mxPoint x="-10" y="-30" as="offset" />
          </mxGeometry>
        </mxCell>
        <mxCell id="NJ20DHf1GFnbEiUFYUzi-6" value="Relation" style="endArrow=open;html=1;endSize=12;startArrow=diamondThin;startSize=14;startFill=0;edgeStyle=orthogonalEdgeStyle;rounded=0;exitX=0.002;exitY=0.465;exitDx=0;exitDy=0;exitPerimeter=0;entryX=0;entryY=0.429;entryDx=0;entryDy=0;entryPerimeter=0;" edge="1" parent="1" source="NJ20DHf1GFnbEiUFYUzi-2" target="NJ20DHf1GFnbEiUFYUzi-1">
          <mxGeometry relative="1" as="geometry">
            <mxPoint x="360" y="140" as="sourcePoint" />
            <mxPoint x="520" y="80" as="targetPoint" />
            <Array as="points">
              <mxPoint x="270" y="78" />
              <mxPoint x="270" y="40" />
              <mxPoint x="480" y="40" />
              <mxPoint x="480" y="80" />
            </Array>
          </mxGeometry>
        </mxCell>
        <mxCell id="NJ20DHf1GFnbEiUFYUzi-7" value="0..n" style="edgeLabel;resizable=0;html=1;align=left;verticalAlign=top;" connectable="0" vertex="1" parent="NJ20DHf1GFnbEiUFYUzi-6">
          <mxGeometry x="-1" relative="1" as="geometry">
            <mxPoint x="-32" y="-24" as="offset" />
          </mxGeometry>
        </mxCell>
        <mxCell id="NJ20DHf1GFnbEiUFYUzi-8" value="1" style="edgeLabel;resizable=0;html=1;align=right;verticalAlign=top;" connectable="0" vertex="1" parent="NJ20DHf1GFnbEiUFYUzi-6">
          <mxGeometry x="1" relative="1" as="geometry">
            <mxPoint x="-3" as="offset" />
          </mxGeometry>
        </mxCell>
      </root>
    </mxGraphModel>
  </diagram>
</mxfile>
